<?xml version="1.0" encoding="iso-8859-1"?>
<!-- Generator: Adobe Illustrator 19.0.0, SVG Export Plug-In . SVG Version: 6.00 Build 0)  -->
<svg version="1.1" id="Capa_1" xmlns="http://www.w3.org/2000/svg" xmlns:xlink="http://www.w3.org/1999/xlink" x="0px" y="0px"
	 viewBox="0 0 512.001 512.001" style="enable-background:new 0 0 512.001 512.001;" xml:space="preserve">
<g>
	<g>
		<path d="M243.68,297.185c-49.664,0-90.08,41.152-90.08,91.744c0,50.592,40.416,91.744,90.08,91.744s90.048-41.152,90.048-91.744
			C333.728,338.337,293.344,297.185,243.68,297.185z M243.68,448.673c-32.032,0-58.08-26.816-58.08-59.744
			s26.048-59.744,58.08-59.744c32.032,0,58.048,26.816,58.048,59.744S275.712,448.673,243.68,448.673z"/>
	</g>
</g>
<g>
	<g>
		<path d="M416.096,170.337c-4.928-5.344-12.8-6.816-19.232-3.424c-6.432,3.328-9.824,10.592-8.256,17.664
			c1.344,6.048,2.016,12.16,2.016,18.048c-0.096,37.344-24.448,70.528-59.2,80.704c-5.312,1.568-9.472,5.76-10.944,11.136
			c-1.472,5.344-0.032,11.104,3.744,15.168c20.064,21.44,31.104,49.632,31.104,79.328c0,37.408-17.952,72.576-47.968,94.016
			c-6.4,4.576-8.544,13.12-5.024,20.16c2.752,5.536,8.352,8.864,14.304,8.864c1.568,0,3.2-0.256,4.864-0.768
			c65.664-20.672,119.68-70.208,144.448-132.48C503.68,284.001,459.136,217.601,416.096,170.337z M436.16,366.945
			c-12.256,30.816-33.664,58.528-60.48,79.744c7.584-18.016,11.648-37.632,11.648-57.76c0-30.208-8.992-59.2-25.664-83.616
			c29.696-15.968,51.232-44.928,58.4-78.528C451.424,273.569,456,317.153,436.16,366.945z"/>
	</g>
</g>
<g>
	<g>
		<path d="M308.896,138.817c-34.784,0-63.104,28.704-63.104,64c0,35.296,28.256,64,62.976,64c34.784,0,63.072-28.704,63.072-64
			S343.616,138.817,308.896,138.817z M308.768,234.817c-17.056,0-30.976-14.368-30.976-32c0-17.632,13.952-32,31.104-32
			c17.088,0,30.944,14.368,30.944,32C339.84,220.449,325.888,234.817,308.768,234.817z"/>
	</g>
</g>
<g>
	<g>
		<path d="M332.576,91.969c-33.76-29.824-63.616-56.864-87.136-86.016c-4.48-5.536-12-7.392-18.464-4.8
			c-6.56,2.688-10.592,9.312-9.92,16.32c5.984,63.84-21.984,78.4-64.288,100.448c-36.32,18.912-81.504,42.496-106.432,105.472
			c-37.888,96.064,0.48,206.752,91.2,263.2c2.624,1.632,5.568,2.4,8.448,2.4c4.48,0,8.896-1.856,12.032-5.472
			c5.152-5.856,5.28-14.656,0.32-20.672c-16.96-20.64-26.304-46.88-26.304-73.92c0-58.048,42.304-106.88,98.368-113.6
			c5.536-0.64,10.304-4.128,12.64-9.184c2.304-5.056,1.824-10.944-1.28-15.584c-9.536-14.176-14.56-30.688-14.56-47.744
			c0-46.176,36.64-83.744,81.728-83.712c3.744,0,7.392,0.224,10.88,0.704c7.2,0.928,13.76-2.784,16.704-9.184
			C339.456,104.193,337.856,96.641,332.576,91.969z M195.2,202.817c0,15.68,3.104,31.008,9.056,45.28
			c-60.736,17.504-104.224,74.496-104.224,140.832c0,7.52,0.576,15.04,1.696,22.432c-37.92-50.272-49.12-116.608-25.632-176.192
			c20.544-51.872,56.576-70.688,91.456-88.864c35.584-18.528,72.128-37.568,80.48-89.408c10.848,11.136,22.4,22.144,34.592,33.312
			C232.544,102.305,195.2,148.193,195.2,202.817z"/>
	</g>
</g>
<g>
</g>
<g>
</g>
<g>
</g>
<g>
</g>
<g>
</g>
<g>
</g>
<g>
</g>
<g>
</g>
<g>
</g>
<g>
</g>
<g>
</g>
<g>
</g>
<g>
</g>
<g>
</g>
<g>
</g>
</svg>
